# xmcd
#
# Track frame offsets:
#  210
#  14018
#  28264
#  43810
#  58354
#  73223
#  89317
#  105551
#  120822
#  137910
#  151916
#  169978
#  187288
#  199555
#  212381
#  225170
#
# Disc length: 3191 seconds
#
# Revision: 0
# Processed by: cddbd v1.4PL0 Copyright (c) Steve Scherf et al.
# Submitted via: AltoMP3_Maker 3.0
#
DISCID=e10c7510
DTITLE=Exitos da Musica Portuguesa - Exitos da Musica Portuguesa vol 5
DYEAR=1900
DGENRE=
TTITLE0=Tonicha - Zumba na Caneca
TTITLE1=Trio Odmira - No Reino do Amor
TTITLE2=Dino Meira - Meu Querido Mes de Agosto
TTITLE3=Clemente - Uma Canção de Amor
TTITLE4=Antonio Mourao - Oh tempo Volta pra traz
TTITLE5=Mario Gil - Caminhos de Portugal
TTITLE6=Ana - Primeiro Beijo
TTITLE7=Herman Jose - A Cançao do Beijinho
TTITLE8=Roberto Leal - Quem Vai dizer que eu ....
TTITLE9=Candida Branca Flor - Um Dois Tres ...
TTITLE10=Jose Cid - 20 Anos
TTITLE11=Mario Mata - Nao ha nada pra ninguem
TTITLE12=Francisco Jose - Uma casa portuguesa
TTITLE13=Tony de Matos - Lisboa do alto mar
TTITLE14=Joao Braga - Lisboa Antiga
TTITLE15=Rui de Mascarenhas - Triste palhaço
EXTD=
EXTT0=
EXTT1=
EXTT2=
EXTT3=
EXTT4=
EXTT5=
EXTT6=
EXTT7=
EXTT8=
EXTT9=
EXTT10=
EXTT11=
EXTT12=
EXTT13=
EXTT14=
EXTT15=
PLAYORDER=
